<svg width="40" height="44" viewBox="0 0 40 44" fill="none" xmlns="http://www.w3.org/2000/svg">
<path d="M15.7799 7.79586C16.7899 7.79586 17.6199 7.45586 18.2899 6.78586C19.0099 6.06586 19.3699 5.17586 19.3699 4.11586C19.3699 3.05586 19.0099 2.26586 18.2899 1.58586C17.6199 0.865859 16.7799 0.505859 15.7799 0.505859C14.7799 0.505859 13.9099 0.865859 13.1899 1.58586C12.5199 2.25586 12.1799 3.10586 12.1799 4.11586C12.1799 5.12586 12.5199 6.06586 13.1899 6.78586C13.9099 7.45586 14.7699 7.79586 15.7799 7.79586Z" fill="#30B6F3"/>
<path d="M24.3999 7.79586C25.4099 7.79586 26.2399 7.45586 26.9099 6.78586C27.6299 6.06586 27.9899 5.17586 27.9899 4.11586C27.9899 3.05586 27.6299 2.26586 26.9099 1.58586C26.2399 0.865859 25.3999 0.505859 24.3999 0.505859C23.3999 0.505859 22.5999 0.865859 21.8899 1.58586C21.1699 2.25586 20.8099 3.10586 20.8099 4.11586C20.8099 5.12586 21.1699 6.06586 21.8899 6.78586C22.6099 7.45586 23.4499 7.79586 24.3999 7.79586Z" fill="#30B6F3"/>
<path d="M39.51 37.4761L35.68 34.1261C36.72 31.9661 37.32 29.5561 37.32 26.9961C37.32 17.8961 29.92 10.4961 20.82 10.4961C11.72 10.4961 4.31999 17.9061 4.31999 27.0061C4.31999 30.1161 5.19999 33.0161 6.69999 35.5061H0.48999V43.5061H20.82C24.47 43.5061 27.83 42.3061 30.56 40.2861L34.24 43.5061L39.5 37.4761H39.51ZM20.82 35.5061C16.13 35.5061 12.32 31.6961 12.32 27.0061C12.32 22.3161 16.13 18.5061 20.82 18.5061C25.51 18.5061 29.32 22.3161 29.32 27.0061C29.32 27.5061 29.27 27.9861 29.19 28.4661L25.5 25.2461L20.24 31.2761L24.25 34.7861C23.2 35.2561 22.04 35.5161 20.82 35.5161V35.5061Z" fill="#30B6F3"/>
</svg>
