<svg width="86" height="38" viewBox="0 0 86 38" fill="none" xmlns="http://www.w3.org/2000/svg">
<path d="M32.026 4.78579C31.4232 4.78579 30.9026 4.56764 30.4642 4.13133C30.0258 3.69501 29.8065 3.17689 29.8065 2.57697C29.8065 1.94977 30.0258 1.41801 30.4642 0.981703C30.9026 0.54539 31.4232 0.327234 32.026 0.327234C32.6289 0.327234 33.1358 0.54539 33.5468 0.981703C33.9852 1.41801 34.2044 1.94977 34.2044 2.57697C34.2044 3.17689 33.9852 3.69501 33.5468 4.13133C33.1358 4.56764 32.6289 4.78579 32.026 4.78579ZM31.9438 7.03552C33.3413 7.03552 34.588 7.36276 35.6841 8.01722C36.7801 8.67169 37.6432 9.58522 38.2735 10.7578C38.9037 11.9304 39.2188 13.3075 39.2188 14.8891C39.2188 16.4435 38.9037 17.807 38.2735 18.9795C37.6432 20.1521 36.7938 21.0657 35.7252 21.7201C34.6565 22.3746 33.4372 22.7155 32.0671 22.7427H24.2168C23.9427 24.2971 23.2988 25.7424 22.285 27.0786C21.2985 28.4148 19.9696 29.4783 18.2981 30.2691C16.6541 31.0872 14.6949 31.4962 12.4206 31.4962C9.87234 31.4962 7.69396 30.9917 5.8855 29.9828C4.10444 28.9738 2.74809 27.6512 1.81646 26.0151C0.912224 24.4062 0.473808 22.6882 0.501209 20.8611C0.52861 19.0341 0.980726 17.4116 1.85756 15.9935C2.76179 14.5755 3.84413 13.5529 5.10457 12.9257C5.32378 12.8166 5.51559 12.7621 5.67999 12.7621C6.06361 12.7621 6.24171 12.9394 6.21431 13.2939C6.21431 13.4848 6.14581 13.6756 6.00881 13.8665C5.43338 14.8482 5.00867 15.8845 4.73466 16.9752C4.46065 18.0388 4.33735 19.0886 4.36475 20.1249C4.39215 22.5246 5.14567 24.3925 6.62533 25.7287C8.13238 27.0649 10.0641 27.733 12.4206 27.733C14.3387 27.733 15.9691 27.2967 17.3117 26.4241C18.6544 25.5515 19.586 24.3244 20.1066 22.7427H15.5032C15.2292 22.7427 15.0374 22.7018 14.9278 22.62C14.8182 22.5382 14.7634 22.3473 14.7634 22.0474V21.7201C14.7634 20.8475 15.0648 20.1385 15.6676 19.5931C16.2979 19.0477 17.1336 18.775 18.1748 18.775H25.6142C25.2854 18.2296 25.0388 17.6161 24.8744 16.9343C24.71 16.2526 24.6278 15.5709 24.6278 14.8891C24.6278 13.3075 24.9429 11.9304 25.5731 10.7578C26.2307 9.58522 27.1076 8.67169 28.2036 8.01722C29.327 7.36276 30.5738 7.03552 31.9438 7.03552ZM31.9438 18.775C32.7111 18.775 33.3139 18.5705 33.7523 18.1615C34.2181 17.7252 34.5606 17.1934 34.7798 16.5662C34.999 15.939 35.1086 15.3527 35.1086 14.8073C35.1086 14.2347 34.999 13.6347 34.7798 13.0075C34.5606 12.3803 34.2181 11.8486 33.7523 11.4123C33.3139 10.976 32.7111 10.7578 31.9438 10.7578C31.204 10.7578 30.5875 10.976 30.0943 11.4123C29.6284 11.8486 29.2859 12.3803 29.0667 13.0075C28.8475 13.6347 28.7379 14.2347 28.7379 14.8073C28.7379 15.3527 28.8475 15.939 29.0667 16.5662C29.2859 17.1934 29.6284 17.7252 30.0943 18.1615C30.5875 18.5705 31.204 18.775 31.9438 18.775ZM9.91344 33.8278C10.4889 33.8278 10.9684 34.0187 11.352 34.4004C11.763 34.8095 11.9685 35.314 11.9685 35.9139C11.9685 36.5138 11.763 37.0047 11.352 37.3864C10.9684 37.7955 10.4889 38 9.91344 38C9.33802 38 8.84481 37.7955 8.43379 37.3864C8.05018 37.0047 7.85837 36.5138 7.85837 35.9139C7.85837 35.314 8.05018 34.8095 8.43379 34.4004C8.84481 34.0187 9.33802 33.8278 9.91344 33.8278ZM14.8867 33.8278C15.4347 33.8278 15.9006 34.0187 16.2842 34.4004C16.6952 34.8095 16.9007 35.314 16.9007 35.9139C16.9007 36.5138 16.6952 37.0047 16.2842 37.3864C15.9006 37.7955 15.4347 38 14.8867 38C14.3113 38 13.8181 37.7955 13.4071 37.3864C12.9961 37.0047 12.7905 36.5138 12.7905 35.9139C12.7905 35.314 12.9961 34.8095 13.4071 34.4004C13.8181 34.0187 14.3113 33.8278 14.8867 33.8278Z" fill="#30B6F3"/>
<path d="M43.2082 22.7427H42.8794C42.578 22.7427 42.4273 22.6064 42.4273 22.3337V3.35414C42.4273 1.11805 43.4959 0 45.6332 0H45.962C46.2634 0 46.4141 0.136348 46.4141 0.409044V19.3886C46.4141 21.6247 45.3455 22.7427 43.2082 22.7427Z" fill="#30B6F3"/>
<path d="M64.3758 18.775H68.6503V22.7427H64.1703C64.0607 23.6154 63.8963 24.4607 63.677 25.2788C63.4852 26.0969 63.1975 26.8604 62.8139 27.5694C62.2111 28.8238 61.3343 29.7919 60.1834 30.4736C59.0326 31.1826 57.7584 31.5235 56.361 31.4962C55.5116 31.4962 54.7306 31.3735 54.0182 31.1281C53.3332 30.9099 52.7304 30.61 52.2097 30.2282C51.7713 29.901 51.4014 29.5192 51.1 29.0829C50.826 28.6738 50.6205 28.2103 50.4835 27.6921C50.4287 27.474 50.4561 27.2967 50.5657 27.1604C50.6753 27.024 50.826 26.9559 51.0178 26.9559C51.1274 26.9559 51.237 26.9695 51.3466 26.9968C51.4562 27.0513 51.5521 27.0922 51.6343 27.1195C52.2371 27.3104 52.7989 27.4604 53.3195 27.5694C53.8675 27.7058 54.6484 27.7603 55.6623 27.733C57.0323 27.7058 58.0872 27.2286 58.8271 26.3014C59.5943 25.4015 60.0601 24.2153 60.2245 22.7427H56.9364C55.539 22.7427 54.2922 22.4155 53.1962 21.761C52.1001 21.1066 51.2233 20.2067 50.5657 19.0614C49.9355 17.916 49.6203 16.6207 49.6203 15.1755C49.6203 13.4302 49.9355 11.9577 50.5657 10.7578C51.2233 9.53068 52.1001 8.60352 53.1962 7.97632C54.3196 7.34912 55.5527 7.03552 56.8953 7.03552C58.5668 7.03552 59.9368 7.4173 61.0055 8.18084C62.1015 8.94439 62.9098 9.99426 63.4304 11.3305C63.7318 12.0667 63.9511 12.9257 64.0881 13.9074C64.2525 14.8891 64.3484 15.8981 64.3758 16.9343V18.775ZM56.9364 18.775H60.2245C60.2793 17.6842 60.2793 16.6071 60.2245 15.5436C60.1971 14.4528 60.0053 13.5257 59.6491 12.7621C59.4025 12.1622 59.0463 11.685 58.5805 11.3305C58.1147 10.9487 57.5529 10.7578 56.8953 10.7578C55.8815 10.7578 55.1005 11.1805 54.5525 12.0258C54.0319 12.8439 53.7716 13.812 53.7716 14.93C53.7716 15.5027 53.8812 16.089 54.1004 16.6889C54.347 17.2888 54.7032 17.7933 55.169 18.2024C55.6349 18.5841 56.224 18.775 56.9364 18.775Z" fill="#30B6F3"/>
<path d="M75.7178 4.62218C75.1424 4.62218 74.6492 4.43129 74.2382 4.04952C73.8546 3.64047 73.6628 3.13599 73.6628 2.53606C73.6628 1.9634 73.8546 1.48619 74.2382 1.10441C74.6492 0.695372 75.1424 0.490851 75.7178 0.490851C76.2933 0.490851 76.7728 0.695372 77.1564 1.10441C77.5674 1.48619 77.7729 1.9634 77.7729 2.53606C77.7729 3.13599 77.5674 3.64047 77.1564 4.04952C76.7728 4.43129 76.2933 4.62218 75.7178 4.62218ZM80.65 4.62218C80.102 4.62218 79.6225 4.43129 79.2115 4.04952C78.8005 3.64047 78.5949 3.13599 78.5949 2.53606C78.5949 1.9634 78.8005 1.48619 79.2115 1.10441C79.6225 0.695372 80.102 0.490851 80.65 0.490851C81.2254 0.490851 81.705 0.695372 82.0886 1.10441C82.4996 1.48619 82.7051 1.9634 82.7051 2.53606C82.7051 3.13599 82.4996 3.64047 82.0886 4.04952C81.705 4.43129 81.2254 4.62218 80.65 4.62218ZM78.1839 7.03552C79.5814 7.03552 80.8281 7.36276 81.9242 8.01722C83.0202 8.67169 83.8833 9.58522 84.5136 10.7578C85.1712 11.9304 85.5 13.3075 85.5 14.8891C85.5 16.4435 85.1849 17.807 84.5547 18.9795C83.9244 20.1521 83.0613 21.0657 81.9653 21.7201C80.8966 22.3746 79.6773 22.7155 78.3072 22.7427H67.1687V18.775H71.8543C71.5255 18.2296 71.2789 17.6161 71.1145 16.9343C70.9775 16.2526 70.8953 15.5709 70.8679 14.8891C70.8679 13.3075 71.183 11.9304 71.8132 10.7578C72.4708 9.58522 73.3477 8.67169 74.4437 8.01722C75.5671 7.36276 76.8139 7.03552 78.1839 7.03552ZM78.1839 18.775C78.9512 18.775 79.5677 18.5705 80.0335 18.1615C80.4993 17.7252 80.8418 17.1934 81.061 16.5662C81.2803 15.939 81.3898 15.3527 81.3898 14.8073C81.3898 14.2347 81.2803 13.6347 81.061 13.0075C80.8418 12.3803 80.4993 11.8486 80.0335 11.4123C79.5677 10.976 78.9512 10.7578 78.1839 10.7578C77.4441 10.7578 76.8276 10.976 76.3344 11.4123C75.8686 11.8486 75.526 12.3803 75.3068 13.0075C75.0876 13.6347 74.978 14.2347 74.978 14.8073C74.978 15.3527 75.0876 15.939 75.3068 16.5662C75.526 17.1934 75.8686 17.7252 76.3344 18.1615C76.8276 18.5705 77.4441 18.775 78.1839 18.775Z" fill="#30B6F3"/>
</svg>
